<svg width="82" height="55" fill="none" xmlns="http://www.w3.org/2000/svg"><path d="M36.268.058c-1.444.182-7.555 1.043-7.571 1.06-.033.032.213 1.299.262 1.348.017.017.32-.016.665-.066.582-.09.648-.083.787.058.099.108.296.91.681 2.864.287 1.498.509 2.772.492 2.83-.057.15-.221.207-.779.265-.254.025-.509.075-.558.1-.065.041-.049.256.041.736.123.613.156.67.312.637.098-.024 1.427-.206 2.961-.413 1.534-.207 2.871-.398 2.962-.414.188-.042.196.066-.09-1.25-.033-.157-.075-.165-.427-.108-.607.1-.985.083-1.108-.04-.115-.117-.533-2.17-.46-2.252.108-.1 1.748-.257 2.002-.19.312.09.296.057.575 1.299.246 1.117.336 1.316.77 1.755.452.455 1.034.612 2.01.554 1.616-.1 2.576-.828 2.584-1.97 0-.34-.13-1.225-.188-1.283a5.183 5.183 0 00-.648.067l-.632.09.05.646.049.646-.222.058c-.336.083-.426-.075-.615-1.076-.107-.571-.238-1.01-.353-1.184-.197-.298-.837-.687-1.132-.687-.246 0-.197-.116.115-.265.771-.372 1.173-1.05 1.091-1.837-.074-.745-.468-1.332-1.108-1.664-.574-.29-1.665-.422-2.518-.314zm.205 1.904c.287.322.394.893.23 1.241-.057.124-.238.298-.394.372-.287.133-2.108.447-2.19.373-.05-.058-.451-2.053-.418-2.086.082-.083 1.173-.19 1.813-.182.705.017.73.025.96.282zM45.39.348c-.066.198-.148.413-.172.488-.041.091.049.174.352.314.583.257.829.48.829.729 0 .116-.312 1.084-.697 2.16a307.81 307.81 0 01-.92 2.557c-.27.778-.401.894-1.008.886-.254-.008-.566-.033-.68-.066-.198-.05-.222-.017-.378.455-.115.364-.14.505-.066.53.312.09 5.152 1.283 5.226 1.283.04 0 .139-.141.205-.307.254-.604.246-.637-.148-.827-.238-.116-.394-.265-.468-.43-.09-.232-.065-.348.287-1.375.246-.711.435-1.117.5-1.117.066 0 .878.19 1.797.422 1.173.298 1.682.464 1.682.538 0 .248-.763 2.177-.91 2.318-.115.099-.337.157-.681.182l-.517.033-.148.447c-.082.248-.131.463-.115.48.017.016 1.198.314 2.617.662 1.42.356 2.641.662 2.723.679.099.033.173-.067.28-.398.081-.24.155-.471.155-.513 0-.033-.18-.14-.41-.232-.492-.19-.78-.447-.78-.687 0-.099.148-.595.329-1.1.77-2.194 1.419-3.965 1.526-4.172.147-.29.352-.356 1.09-.356h.608l.147-.447c.09-.248.148-.463.131-.471-.04-.042-5.742-1.449-5.766-1.424a9.239 9.239 0 00-.189.48c-.164.422-.164.464-.033.555.074.058.18.107.23.107.057 0 .254.116.435.249.262.19.344.306.344.48 0 .231-.533 1.829-.656 1.953-.057.058-3.61-.745-3.61-.82 0-.016.148-.446.337-.968.427-1.2.533-1.308 1.337-1.308h.59l.173-.488.18-.488-2.723-.67C46.924.297 45.661 0 45.603 0c-.049 0-.147.157-.213.348zM19.698 4.635c-2.526 1.225-4.594 2.26-4.594 2.3 0 .05.173.332.386.63l.386.538.434-.199c.616-.29.927-.34 1.173-.174.173.116 2.715 3.7 3.159 4.461.237.406.106.646-.55 1.018l-.517.298.336.489c.19.264.361.488.386.488.025 0 2.174-1.026 4.782-2.284l4.742-2.293-.493-.712a59.163 59.163 0 01-1.041-1.523c-.304-.438-.6-.802-.657-.802-.082 0-1.214.538-1.312.62-.008.009.098.249.246.522.492.968.386 1.78-.295 2.234-.386.265-2.297 1.176-2.461 1.176-.123 0-1.715-2.301-1.649-2.4.066-.108.788-.332 1.083-.332.385 0 .836.207 1.181.547l.295.29.468-.224c.254-.133.46-.265.46-.298 0-.14-2.248-3.294-2.355-3.294-.057 0-.295.09-.517.207-.377.19-.402.223-.328.422.115.298.099.869-.033 1.1-.106.2-.746.671-.902.671-.057 0-.402-.447-.771-.993l-.673-.993.845-.422c2.174-1.101 2.74-1.134 3.716-.224l.533.513.624-.314c.426-.215.599-.34.566-.422-.066-.174-1.96-2.856-2.01-2.848-.025 0-2.116 1.002-4.643 2.227zm40.81 1.283c-.295.066-.886.298-1.312.513-.665.323-.895.496-1.567 1.175-1 1.01-1.386 1.738-1.452 2.698-.107 1.73 1.148 3.402 3.412 4.552 1.182.596 2.724.812 3.872.547.69-.166 1.862-.77 2.478-1.283 1.722-1.449 2.255-3.153 1.525-4.925-.221-.538-.36-.736-1-1.374-.854-.844-1.731-1.398-2.798-1.754-.82-.265-2.305-.34-3.158-.15zm3.732 2.02c1.288.595 1.018 2.168-.672 3.873-.935.943-2.289 1.68-3.093 1.68-.902 0-1.608-.613-1.608-1.399 0-1.374 2.084-3.617 3.897-4.196.476-.15 1.1-.133 1.476.041zM11.987 9.6c-.672.77-1.238 1.44-1.255 1.482-.016.042.263.249.607.464l.632.389.312-.348c.188-.207.369-.33.459-.314.131.024 3.412 3.542 3.355 3.6-.025.025-4.741-1.374-5.07-1.506-.213-.083-.188-.166.181-.571l.328-.356-.615-.39c-.345-.206-.648-.38-.69-.38-.032 0-.811.836-1.722 1.862L6.86 15.394l.304.19c.172.108.468.282.648.39l.336.198.263-.223c.32-.265.787-.29 1.468-.075.418.133.5.216 1.657 1.59.673.794 1.206 1.465 1.19 1.481-.058.05-5.25-1.498-5.357-1.606-.098-.082-.074-.149.131-.38l.246-.273-.656-.406c-.55-.34-.673-.389-.755-.298-1.534 1.689-2.92 3.319-2.879 3.385.025.041.304.232.615.422l.575.34.246-.207c.311-.273.599-.331 1.124-.232.23.05 2.083.554 4.126 1.126 2.042.57 3.732 1.034 3.765 1.034.057 0 1.83-1.945 1.878-2.06.008-.034-.5-.671-1.123-1.416-.632-.745-1.133-1.374-1.124-1.39.024-.017 2.214.595 3.666 1.026.099.025.443-.298 1.14-1.084.55-.621.985-1.16.969-1.2-.025-.075-1.805-2.078-3.79-4.263-1.468-1.614-1.542-1.763-1.165-2.235l.197-.24-.632-.397c-.344-.215-.64-.389-.664-.389-.025 0-.59.63-1.272 1.399zm58.061 1.549l-.508.306.205.372c.23.439.238.571.073.811-.065.091-1.082.745-2.263 1.44-1.182.704-2.322 1.432-2.543 1.63-.78.704-1.05 1.789-.698 2.815.37 1.084 1.764 2.665 2.798 3.162 1 .48 2.165.422 3.297-.158.263-.132 1.395-.786 2.527-1.448 1.123-.662 2.132-1.208 2.24-1.208.278 0 .663.223 1.05.596l.335.322.5-.306c.28-.166.51-.331.51-.364 0-.058-2.338-2.872-2.708-3.261-.14-.15-.164-.14-.689.157l-.55.306.214.273c.27.365.386.696.336.92-.033.132-.582.496-1.993 1.34-2.855 1.688-2.715 1.63-3.601 1.63-.738 0-.755-.008-1.214-.322-1.042-.72-1.14-1.581-.27-2.425.286-.273 3.379-2.185 4.396-2.707.377-.198.73-.116 1.239.29.23.182.443.323.475.306.353-.157.92-.538.903-.612-.025-.1-3.446-4.155-3.511-4.163-.025-.009-.27.132-.55.297zm-31.196 3.426c-1.567.091-2.904.298-4.93.745-.451.1-.484.1-.984-.14-.665-.307-1.198-.307-1.985-.009-1.026.397-1.657.985-1.592 1.49.025.215-.024.256-1.082.81-3.708 1.938-6.612 4.735-8.458 8.128-.205.39-.385.63-.451.605a13.34 13.34 0 00-1.066-.133c-1.6-.174-2.806-.033-3.2.356-.188.199-.656 1.87-.566 2.028.14.248 1.272.753 2.248 1.01.517.14 1.624.372 2.461.513 1.263.215 1.747.256 2.887.265 1.124.008 1.395-.017 1.485-.116.197-.215.55-1.159.55-1.457 0-.58-.96-1.283-2.502-1.82a28.913 28.913 0 01-.681-.24c-.05-.042.787-1.466 1.247-2.111a18.65 18.65 0 015.094-4.908c.861-.563 2.567-1.507 2.625-1.449.016.017-.525.439-1.206.936-2.124 1.556-2.78 2.64-2.272 3.765.09.199.221.43.295.514.107.124.123.314.066 1.382-.066 1.431-.017 1.688.426 2.085.337.29.657.447 1.37.646l.484.14.148.497c.443 1.457 1.616 2.574 4.438 4.205 1.23.72 1.903 1.208 2.24 1.655.204.273.212.306.13.877-.073.58-.082.588-.738 1.291-.37.39-.78.878-.927 1.093-.336.488-.804 1.564-.804 1.846 0 .413.451.538.55.149.18-.696 1.247-2.376 1.903-3.005.32-.306.599-.306 1.288.025.722.34 1.402 1.018 2.059 2.053.475.745.582.86.894.985a1.76 1.76 0 001.312-.058c.173-.091.337-.315.616-.878.459-.927 1.214-1.994 1.747-2.483.344-.306.451-.364.697-.339.328.025.27-.041 1.132 1.457.295.513.648 1.216.796 1.572.287.704.541.902.541.422 0-.471-.82-2.35-1.361-3.095-.197-.282-.526-1.217-.526-1.506 0-.588.616-1.234 2.502-2.632 1.526-1.134 2.47-2.053 3.027-2.955.312-.513.476-.687.82-.894.969-.555 1.535-1.3 1.805-2.359.148-.587.074-1.457-.188-2.21-.123-.364-.148-.538-.082-.745.123-.447.09-.595-.246-1.05a2.899 2.899 0 01-.427-.861c-.14-.605-.386-1.217-.599-1.507-.238-.314-.36-.67-.205-.58.394.224 2.207 1.49 2.863 1.987 1.96 1.498 3.544 3.278 4.544 5.107.115.223.304.563.419.761l.197.364-.386.141c-.59.224-1.632.762-1.952 1.01-.32.24-.525.58-.525.852 0 .1.115.456.254.795.205.488.295.629.468.679.123.033.812.05 1.534.05 1.878-.017 4.232-.415 6.119-1.019.87-.281 1.55-.678 1.55-.893 0-.083-.123-.522-.27-.969-.189-.571-.337-.877-.476-.977-.484-.364-2.453-.405-4.627-.107l-.328.05-.402-.77c-1.78-3.443-4.487-5.984-8.957-8.417-1.018-.547-1.296-.745-1.616-1.118-.353-.414-.443-.472-1.14-.703-.87-.29-1.1-.315-1.313-.124-.131.132-.23.124-1.353-.125-1.625-.347-2.593-.48-4.209-.587-1.468-.091-1.665-.091-3.199.008zm-6.505.753c.189.174.23.43.14.795-.05.157-.099.19-.345.165-.262-.024-.295-.058-.451-.455-.131-.356-.14-.463-.057-.563.147-.182.492-.149.713.058zm-.976.174c.057.066.074.24.041.414-.033.232-.016.314.09.356.156.058.18.33.033.389-.131.041-.394-.083-.394-.199 0-.05-.09-.207-.196-.348-.296-.405-.304-.446-.165-.587.156-.157.476-.174.591-.025zm16.84.199c.042.124.075.372.058.554-.016.282-.057.348-.205.364-.262.042-.599-.322-.599-.637 0-.405.074-.505.378-.505.23 0 .295.042.369.224zm-4.724.231c1.009.133 2.502.44 2.658.538.057.034.172.39.262.795.18.828.304.985 1.173 1.523.771.472.87.86.451 1.73-.23.471-.254.587-.205 1.018l.05.48-.5.496c-.28.282-.6.522-.723.546-.123.025-.656-.033-1.181-.132-.533-.09-1.214-.165-1.51-.157-.41.016-.557-.008-.59-.1-.074-.231-.861-.984-1.468-1.407-.345-.24-.771-.554-.944-.711-.426-.381-.582-.356-1.246.182-.181.14-.706.48-1.174.745-.459.265-1.041.662-1.287.869l-.46.389-.943.058c-.829.041-1.034.09-1.649.347-.386.158-.746.273-.796.257-.057-.025-.156-.199-.213-.397-.082-.24-.303-.547-.664-.92-.443-.463-.525-.578-.451-.703.163-.298.295-1.067.295-1.746v-.687l.853-.844c.738-.72.87-.902.951-1.233l.099-.39.55-.123c1.074-.24 2.411-.44 4.027-.58.747-.066 3.757.033 4.635.157zm5.233-.082c.271.264.247 1.034-.032 1.034-.156 0-.32-.29-.32-.58 0-.545.114-.694.352-.454zm-18.12.132c.123.1.213.248.213.373 0 .107.09.28.205.38.28.24.255.315-.082.315-.238 0-.32-.05-.443-.257a1.34 1.34 0 00-.328-.372c-.213-.15-.221-.406-.024-.522.196-.116.213-.116.459.083zm18.908.108c.057.066.09.223.074.355-.017.183-.074.24-.246.257-.214.025-.23.008-.23-.298 0-.174.024-.347.057-.372.09-.091.246-.066.345.058zm-16.119.215c.287.107.279.455-.016.877a2.35 2.35 0 00-.28.455c-.057.15-.549.406-.779.406-.09 0-.287-.058-.434-.14-.23-.117-.312-.117-.525-.026-.46.19-.657.19-.82.009-.148-.166-.14-.174.245-.422.435-.274.837-.315 1.477-.158.345.091.394.083.55-.074.205-.207.147-.315-.107-.182-.205.107-.697-.025-.771-.207-.05-.133.27-.331.812-.505.41-.133.402-.133.648-.033zm16.734.513c.107.174.058.232-.312.314-.32.075-.377-.016-.205-.339.099-.198.386-.182.517.025zm-2.297.066c.812.124.73.298-.18.38-.484.05-.59.084-.574.191.04.216.442.356.803.298.18-.033.345-.09.378-.132.074-.116.558-.083.755.05.122.09.328.124.688.107.649-.033.69.108.124.464l-.386.24-.476-.15c-.254-.082-.812-.165-1.23-.181-.87-.042-.96-.108-1.058-.812-.041-.33-.025-.413.106-.513a.45.45 0 01.361-.058c.115.025.419.083.69.116zm-17.636.108c.172.14.205.207.123.24-.172.066-.46-.066-.566-.257-.074-.149-.066-.174.057-.174.082 0 .255.091.386.19zm1.567 1.564c-.115.538-.304.745-1.1 1.175-.426.24-.828.513-.894.613-.115.174-.106.182.123.182.156 0 .492-.166.935-.455 1.01-.67 1.206-.605 1.1.356-.082.695-.099.728-.5.968-.206.124-.345.256-.304.29.032.041.32.215.64.397.87.496.894.554.927 1.912.024.877 0 1.159-.082 1.233-.09.066-.329-.041-1.091-.472-.534-.314-1.042-.662-1.124-.778-.082-.116-.18-.405-.205-.637-.05-.439-.222-.63-.361-.406-.14.224-.074.762.18 1.383.484 1.183.336 1.779-.55 2.218-.795.389-1.706.273-2.058-.273-.115-.174-.148-.497-.19-1.672-.056-1.432-.056-1.465-.31-1.945-.271-.505-.337-.886-.157-1.018.05-.05.222-.124.378-.182.508-.174.73-.505.328-.505-.402 0 0-.464 1.025-1.15.451-.315.919-.671 1.034-.795a3.43 3.43 0 01.566-.464c.328-.215.443-.24 1.058-.24h.689l-.057.265zm19.137.066c.312.19.59.621.59.91 0 .117.124.473.271.787.156.323.32.712.378.877.057.174.18.34.295.39.23.107.246.165.107.604-.074.273-.066.455.106 1.166.148.646.19 1.093.197 1.846 0 1.11-.106 1.49-.492 1.746-.46.307-1.739.207-2.075-.157-.205-.232-.312-.654-.378-1.54-.049-.612-.032-.711.099-.868.246-.273.46-1.002.344-1.2-.13-.249-.197-.215-.484.223-.401.637-.566.745-1.534 1.01-1.058.29-.976.281-1.132.116-.328-.331.5-1.747 1.23-2.102.42-.207.411-.19.272-1.49-.058-.456-.074-.853-.041-.886.024-.033.155.05.279.166.13.124.311.223.41.223.164 0 .172-.016.09-.19a9.84 9.84 0 00-.542-.753c-.237-.307-.434-.596-.434-.63 0-.082.41-.165.853-.173.18 0 .467-.058.623-.116.41-.157.657-.15.968.041zM40.78 20.824c.09.116.426.348.738.513.673.356 1.026.794 1.083 1.357l.041.356-.443.19c-.525.216-.623.224-.82.042-.14-.124-.148-.124-.148.05 0 .488-1.395.438-1.46-.05-.025-.174-.033-.174-.263-.041-.197.116-.303.124-.787.041-.64-.116-.968-.314-1-.629-.042-.323.27-.571 1.46-1.175.565-.29 1.074-.605 1.131-.696.132-.231.263-.215.468.042zm-2.461 2.657c.812.157 1.813.306 2.215.33.664.034.82.017 1.526-.206 1.05-.331 1.935-.455 2.96-.414.911.033 1.395.207 1.609.563.221.372-.14.43-1.01.157-.532-.166-.779-.166-.779 0 0 .091.123.132.6.215.377.058.401.207.04.215l-.27.009.246.066c.139.033.426.066.64.074.812.017.902.307.385 1.2-.18.315-.312.588-.295.613.074.074.443-.224.68-.538.46-.62.804-.919 1.165-1.018.468-.124.91-.05.91.157 0 .298-.82.894-1.607 1.167-.525.182-.853.447-.853.679 0 .232-.189.265-.804.124-.303-.075-1.083-.149-1.755-.165-1.116-.034-1.239-.05-1.674-.265a4.098 4.098 0 01-.87-.621c-.59-.58-.524-.77.304-.86.747-.084 1.436-.233 1.436-.307 0-.041-.361-.083-.796-.091l-.804-.025.345-.182c.18-.1.484-.207.672-.24.37-.058.6-.248.394-.323-.123-.05-1.304.224-1.739.406-.205.09-.435.074-1.435-.083-1.42-.223-1.625-.24-1.247-.075.155.067.697.2 1.214.298l.943.174-.025.257c-.032.33-.164.364-.443.09-.237-.214-.246-.214-1.099-.165-.64.042-.886.091-.96.19-.057.075-.081.166-.057.2.025.04.468.074.984.074.895 0 .952.008 1.149.207.156.157.189.24.123.356-.123.231-.927.562-1.944.81a8.67 8.67 0 01-3.298.117c-.558-.091-.607-.125-1.28-.72-.574-.514-.68-.654-.623-.77.131-.24.558-.348 1.559-.39 1.05-.049 1.329-.123.96-.264a3.36 3.36 0 00-.681-.14c-.632-.075-.575-.183.246-.48.123-.042.14-.075.057-.158-.074-.075-.18-.066-.492.05-.78.273-1.058.066-.353-.265 1.034-.489 1.485-.497 3.831-.033zm-6.604 1.721c.222.108.46.29.525.39.19.264.247.678.132.893-.09.166-.148.182-.574.149-.353-.025-.55-.091-.763-.257-.271-.206-.287-.256-.32-.728-.017-.38.008-.521.098-.58.213-.123.484-.082.902.133zm17.908.62c.057.539.049.63-.074.721-.402.298-.69-.108-.525-.728.14-.514.238-.67.394-.638.106.025.156.166.205.646zm-16.07.406c.427.414.706.605.952.67l.352.1-.238.14c-.393.24-.525.257-.795.142-.6-.274-1.23-1.134-1.091-1.498.074-.207.205-.141.82.446zm15.208-.215a.718.718 0 01-.09.406 1.573 1.573 0 00-.172.422c-.074.323-.55 1.026-.755 1.117-.23.116-.443-.025-.443-.29 0-.132.099-.306.287-.471.156-.14.353-.43.443-.637.205-.472.492-.836.616-.795.049.017.098.124.114.248zm-7.604.257c.763.521 1.567.703 3.552.786 1.977.083 2.182.166 2.182.86 0 .315.279.97.41.97.058 0 .451-.373.886-.837 1.116-1.175 1.362-1.274 1.862-.778.255.257.287.348.287.704 0 .364-.049.488-.426 1.018-.829 1.167-1.222 1.457-2.01 1.465-.394 0-.426.016-.508.256-.123.356-.878 1.25-1.288 1.515-.46.29-.583.447-1.059 1.275-.393.695-.434.728-1.14 1.15-2.264 1.34-4.29 1.399-6.505.182-.492-.273-.623-.397-.828-.761-.304-.538-.747-1.002-1.51-1.573-.828-.62-.91-.728-.951-1.266-.033-.447-.041-.464-.255-.414-.114.025-.459.091-.762.149l-.558.1-.837-.572c-1.288-.885-1.788-1.465-2.018-2.293L29.6 27.9l.337-.107c.311-.1.344-.133.336-.356a2.217 2.217 0 00-.074-.439c-.057-.165-.033-.182.221-.182.156 0 .476.058.722.133.238.074.542.107.657.082.213-.041.23-.025.279.34.073.546.393 1.059.828 1.307.451.265.894.398 1.116.331.155-.05.164-.116.139-.604-.025-.538-.016-.546.238-.712.148-.099.41-.264.574-.38.295-.19.394-.199 2.075-.257 2.199-.083 2.888-.24 3.405-.82.197-.215.352-.206.705.034zm6.35.455c-.181.265-.28.34-.46.34-.197 0-.238-.034-.238-.207 0-.158.082-.24.394-.398.213-.116.418-.174.451-.14.041.033-.025.215-.148.405zm-28.605.149c.238.041.271.075.222.224a2.784 2.784 0 00-.066.29c-.024.181.517.421.977.421.393 0 .426-.016.524-.248.058-.14.165-.248.238-.248.214 0 1.264.538 1.444.736.246.282.05.356-.82.306-1.797-.107-4.356-.753-4.758-1.208-.082-.09-.123-.215-.09-.298.049-.124.156-.132 1.058-.083.55.034 1.124.075 1.271.108zm14.257.174c.222.174.468.347.55.372.123.05.131.083.05.232-.05.1-.075.323-.05.497.024.182.016.339-.017.364-.164.1-.672-.158-.976-.489-.311-.339-.32-.372-.254-.72.033-.198.066-.413.074-.471 0-.182.213-.108.623.215zm31.607-.033c.237.248-.296.629-1.346.951-.894.282-2.699.588-3.74.646-1.46.075-1.862-.066-1.313-.463.238-.174 1.395-.67 1.567-.67.05 0 .148.132.213.297l.123.298.517-.033c.303-.017.607-.091.738-.174.205-.14.214-.157.09-.389-.065-.132-.123-.273-.123-.314 0-.05.361-.124.804-.174.435-.05.91-.108 1.042-.124.46-.067 1.296.025 1.428.149zm-49.342.645a.29.29 0 01-.246.439c-.164 0-.254-.273-.164-.505.058-.157.287-.116.41.066zm42.623 1.68c.132.158.05.373-.156.373-.172 0-.295-.38-.14-.447.157-.066.19-.058.296.074z" fill="#EA7E1A"/><path d="M30.173 21.453a.486.486 0 00-.098.29c0 .165.041.19.295.19.28 0 .287-.008.263-.273-.025-.29-.271-.398-.46-.207zm20.467-.977c-.107.158-.107.224-.033.315.131.165.837.563.993.563.213 0 .147-.224-.115-.414-.14-.1-.304-.29-.37-.422-.155-.29-.303-.307-.475-.042zm-1.354 1.482l-.172.19.164.273c.214.348.451.323.419-.05-.017-.14.016-.28.057-.314.05-.025.09-.108.09-.174 0-.182-.36-.14-.558.075zm-9.614-.53c-.098.066-.073.1.107.166.435.165 1.624.074 1.444-.108-.09-.091-1.428-.14-1.55-.058zm.591.513c-.279.108-.14.24.254.24.386 0 .6-.1.517-.24-.074-.107-.508-.107-.77 0zm-5.365 3.949c-.213.04-.18.256.05.363.246.108.483.033.443-.149-.025-.157-.28-.265-.493-.215zm9.942.223c0 .09.099.124.37.124.369 0 .492-.1.237-.199-.254-.1-.607-.058-.607.075zm-4.38 1.523c-.23.256-.82.355-2.363.397-1.542.05-1.755.09-1.534.322.124.125.263.125 1.789-.008.91-.074 1.829-.19 2.042-.248.328-.108.427-.1.747.008.385.133 1.977.273 3.109.282.533 0 .672-.025.672-.116a.288.288 0 00-.098-.19c-.057-.034-.804-.092-1.665-.116-1.542-.058-2.035-.141-2.125-.373-.066-.166-.41-.14-.574.041zm-10.205.894c.033.306.854.86 1.354.918.46.05.443-.058-.05-.298a3.682 3.682 0 01-.77-.513c-.435-.39-.575-.414-.534-.108zm8.991.91c-.402.025-.558.066-.558.149 0 .165.123.182.812.099.345-.041 1.395-.05 2.33-.025 1.304.033 1.698.017 1.673-.058-.016-.058-.14-.124-.27-.149-.246-.058-3.02-.066-3.987-.016zm-.583 2.4c-.032.025-.057.1-.057.165 0 .083.443.108 2.33.108 1.28 0 2.387-.025 2.46-.05.075-.024.132-.099.132-.165 0-.1-.402-.116-2.404-.116-1.329 0-2.436.025-2.46.058zm1.731 1.274c-.197.108-.188.299.017.406.254.14 1.074.066 1.173-.1.156-.248-.066-.397-.59-.397-.255 0-.526.042-.6.091zm34.879-11.702c-.82.29-1.533 1.01-1.763 1.787-.156.546-.156 1.564.008 2.5.189 1.109.189 1.804-.016 2.085-.361.497-1.075.663-1.567.356-.41-.248-.624-.753-.665-1.572-.065-1.258.394-2.409 1.133-2.83.18-.108.328-.216.328-.24 0-.15-.517-1.151-.6-1.151-.048 0-.869.207-1.829.463l-1.747.472.197.53c.254.687.238.662.55.72l.27.05.009 1.175c0 1.06.024 1.258.23 1.887.688 2.119 2.124 3.12 4.027 2.814 1.107-.174 1.879-.695 2.289-1.531.344-.72.402-1.267.295-3.08-.074-1.34-.066-1.63.033-1.87.336-.82 1.706-.422 2.059.588.336.96.303 1.862-.09 2.433-.19.273-.78.745-1.034.828-.074.025.312 1.142.394 1.142.057 0 3.42-.91 3.445-.927.008-.017-.025-.248-.082-.521l-.099-.497-.418-.025-.426-.025.049-.844c.065-1.349-.304-2.5-1.124-3.468-.952-1.109-2.666-1.672-3.856-1.25zm-70.381.148c-1.37.315-2.658 1.325-3.216 2.533-.484 1.018-.697 2.268-.558 3.178.328 2.152 2.363 3.576 5.332 3.741 1.838.1 3.339-.447 4.512-1.655 1.075-1.1 1.575-3.046 1.165-4.544-.41-1.465-1.805-2.673-3.642-3.137-.91-.223-2.83-.29-3.593-.115zm2.215 2.897c.992.166 1.755.398 2.354.712.812.43 1.09.795 1.09 1.432 0 1.142-1.861 1.713-4.347 1.332-2.37-.355-3.749-1.299-3.445-2.358.09-.315.426-.704.771-.886.664-.348 2.223-.447 3.577-.232zm7.054 4.668a1.46 1.46 0 00-.082.489c0 .314.016.33.476.537 1.025.464 2.256.795 4.077 1.101 1.132.19 1.558.224 3.1.232 1.682.008 1.797 0 1.912-.149a.86.86 0 00.115-.43v-.257l-1.657-.05c-2.437-.066-4.282-.413-6.702-1.258a22.59 22.59 0 00-1.1-.372c-.032 0-.09.075-.139.157zm.78.356c.286.133.237.364-.074.34-.296-.025-.402-.116-.329-.299.058-.165.123-.173.402-.04zm50.915-.091c-2.1.803-4.388 1.233-6.865 1.291l-1.641.033.008.331c0 .182.05.373.107.43.065.067.541.108 1.468.125 2.584.058 6.177-.596 7.81-1.415.328-.158.369-.215.393-.489.033-.364-.098-.645-.295-.637-.074.008-.517.157-.984.331zm-7.415 1.755c.025.182-.008.223-.148.223-.188 0-.287-.182-.213-.38.082-.207.336-.1.361.157z" fill="#EA7E1A"/><path d="M13.89 30.516c-.098.099-.065 1.076.05 1.167.147.124 1.698.496 2.641.629 1.28.19 3.708.314 5.357.281 1.657-.025 1.657-.025 1.657-.563v-.29l-1.789-.008c-2.854-.016-5.209-.364-7.227-1.067-.705-.24-.623-.224-.689-.15zm.771.604c.165.09.206.29.082.364-.147.091-.5-.108-.5-.281 0-.182.164-.215.418-.083zm51.549-.24c-2.076.629-4.275.919-6.99.927-1.558.008-1.665.016-1.714.165-.025.083 0 .257.049.39.09.206.156.248.558.297.574.075 4.208-.016 5.266-.132 1.542-.166 3.675-.613 3.864-.803.115-.116.189-.637.123-.886-.066-.264-.131-.264-1.157.042zm-7.589 1.366c0 .29-.377.28-.426-.009-.041-.215.05-.29.287-.223.082.025.14.116.14.231zM2.472 31.17c-1.19.19-1.96.778-2.248 1.721-.27.877-.287 1.697-.098 3.816.09 1.042.188 2.325.221 2.847l.058.943.492-.058c.27-.025.599-.05.722-.05.23 0 .238-.016.238-.364 0-.206.032-.463.082-.579.164-.438.23-.447 3.683-.629 1.772-.09 3.29-.149 3.371-.124.287.091.509.439.558.886l.057.438h1.232l-.008-.248c-.008-.646-.32-4.941-.361-5-.025-.032-.296-.04-.615-.016l-.575.05-.049.38c-.074.497-.197.729-.451.82-.115.05-.763.108-1.452.133l-1.255.057-.099-1.233c-.057-.72-.164-1.456-.262-1.78-.287-.951-.829-1.597-1.567-1.853-.369-.133-1.271-.215-1.673-.157zm1.312 2.756c.59.273.812.678.903 1.671l.057.638-.312.05c-.18.024-.877.066-1.566.099l-1.247.05-.058-.216c-.024-.116-.04-.505-.024-.86.032-.563.065-.696.27-.96.443-.588 1.296-.787 1.977-.472zM71.5 36.334v4.635h2.076c1.148 0 2.1-.017 2.116-.033.016-.017.025-.34.008-.704l-.033-.67h-.295c-.46 0-1.353-.215-1.723-.406a1.973 1.973 0 01-.566-.48c-.23-.298-.23-.306-.23-1.589v-1.29l1.707-.026 1.698-.016v.265c0 .149-.074.422-.156.612-.18.39-.632.662-1.263.745l-.386.058v.968h4.676v-.496c0-.364-.033-.497-.115-.497-.295 0-.968-.298-1.19-.53-.237-.248-.467-.96-.352-1.084.025-.025.664-.041 1.427-.041h1.378v1.092c0 1.978-.254 2.35-1.714 2.566l-.665.091v1.299l2.035-.016 2.026-.025.025-4.535.016-4.528h-.82c-.919 0-.853-.058-.927.778-.066.704.131.67-3.626.67-3.298 0-3.322 0-3.495-.181-.13-.133-.196-.323-.23-.704l-.048-.521-.673-.025-.68-.025v4.643z" fill="#EA7E1A"/><path d="M13.718 32.328c-.082.224-.057.737.058.886.13.182 1.263.356 3.15.48 1.804.124 6.217.066 6.488-.075.148-.082.18-.173.18-.488v-.38l-.385.057c-1.977.249-5.906.042-8.416-.447-1.01-.198-1.01-.198-1.075-.033zm1.058.621c0 .157-.402.199-.525.05-.049-.067-.073-.182-.04-.249.04-.115.081-.124.303-.024.148.057.262.157.262.223zm52.089-.621c-.574.157-2.42.422-3.732.538-.935.075-3.847.108-5.168.05l-.369-.017.008.356c0 .19.033.373.058.398.213.215 5.922.24 7.768.04 1.608-.181 1.878-.247 2.01-.504.065-.132.123-.34.123-.455 0-.232-.132-.546-.23-.53-.033.008-.238.066-.468.124zm-8.178 1.01c.017.108-.025.207-.107.232-.155.066-.246-.017-.328-.282-.049-.173-.033-.19.18-.165.165.016.239.074.255.215z" fill="#EA7E1A"/><path d="M13.776 33.67c-.107.264-.066.843.065.967.197.207.91.282 3.027.34 2.945.083 6.218-.199 6.57-.555.165-.165.19-.306.09-.463-.048-.083-.18-.083-.59 0-.344.058-1.452.09-3.158.09-2.633 0-4.06-.107-5.438-.396-.452-.091-.534-.091-.566.016zm.853.554c.254.173.155.405-.132.33-.278-.066-.352-.148-.287-.314.066-.174.189-.174.419-.016zm52.154-.489c-1.64.364-5.66.555-7.67.364-1.599-.157-1.517-.157-1.542.092-.016.115.025.256.083.297.147.125 1.164.323 2.28.447 1.288.141 5.742.141 6.644 0 .714-.107.796-.157.92-.57.056-.2-.067-.77-.165-.754-.033.008-.279.066-.55.124zm-8.26.638c.025.207 0 .231-.164.207-.14-.017-.197-.092-.213-.257-.025-.207 0-.232.164-.207.14.017.197.091.213.257z" fill="#EA7E1A"/><path d="M22.996 34.853c-1.797.422-7.096.538-8.835.182-.205-.042-.246-.017-.295.182-.066.256.082.803.246.943.172.15 2.412.207 3.822.1 2.182-.166 4.307-.464 5.43-.762.337-.09.452-.306.313-.57-.099-.183-.197-.191-.681-.075zm-8.138.753c.361.165.23.447-.164.347-.147-.033-.205-.107-.205-.248 0-.223.066-.24.37-.1zm42.681-.712c-.041.033-.066.166-.066.298 0 .29.107.34 1.198.563 2.657.53 7.112.81 8.301.521.328-.074.55-.77.353-1.084-.058-.1-.172-.1-.632-.017-.877.15-3.92.2-5.48.092a31.702 31.702 0 01-3.33-.39c-.156-.024-.312-.016-.344.017zm.918.414c0 .29-.377.281-.426-.008-.041-.216.049-.29.287-.224.082.025.14.116.14.232z" fill="#EA7E1A"/><path d="M23.225 35.722c-.705.207-2.65.513-4.142.662-1.46.14-4.372.198-4.774.09-.197-.049-.222-.032-.27.266-.083.48.106.794.508.869 1.173.19 4.75-.166 6.874-.687 1.944-.48 2.772-.886 2.494-1.217-.115-.14-.156-.14-.69.017zm-8.047 1.324c.189.074.164.364-.024.364-.271 0-.419-.091-.419-.256 0-.158.189-.207.443-.108zm42.074-1.242a.358.358 0 00.032.274c.205.33 2.642 1.042 4.635 1.332 1.485.224 3.905.373 4.577.282.517-.075.534-.083.624-.365.049-.157.074-.413.057-.563-.04-.256-.057-.273-.303-.215-.451.108-3.249.05-4.643-.09-1.706-.166-2.757-.324-3.897-.58-1.066-.248-1.017-.24-1.083-.075zm1.033.19c.115.075.058.423-.074.423-.197 0-.328-.124-.328-.298 0-.207.18-.265.402-.124z" fill="#EA7E1A"/><path d="M23.553 36.715c-.524.198-2.534.67-3.65.852-1.862.307-3.06.439-4.265.447-.681.008-1.214.05-1.247.1-.123.165-.066.604.106.819.156.199.214.215.796.215.59 0 1.747-.1 2.535-.215l.336-.05.107.472c.123.546.336.745.82.745a.714.714 0 00.525-.207c.205-.19.213-.248.172-.645-.032-.24-.057-.48-.073-.53-.009-.05.352-.19.845-.315a19.17 19.17 0 002.805-.927c.796-.33.951-.471.837-.761-.058-.157-.214-.157-.649 0zm-7.76 1.812c.238.232-.147.398-.434.182-.197-.149-.09-.413.147-.339.09.025.222.1.287.157zm41.196-1.746c-.189.224.05.439.943.828.755.33 2.289.844 3.01 1.001.214.042.23.075.222.398-.024.562-.008.62.18.802.124.108.288.166.526.166.46 0 .73-.224.804-.67l.057-.348.55.058c1.468.14 2.313.207 2.748.215.443 0 .475-.017.631-.273a.974.974 0 00.148-.555l-.025-.29-1.558-.05c-.902-.032-2.06-.123-2.748-.23-.656-.1-1.452-.216-1.78-.266-.492-.074-1.994-.422-2.609-.612-.147-.041-.172-.017-.164.182 0 .174-.04.232-.164.232-.221 0-.295-.456-.066-.456.09-.008.041-.057-.13-.124-.345-.157-.452-.157-.575-.008zM22.077 43.46c-3.618.24-5.939 2.36-6.087 5.579-.114 2.549 1.075 4.411 3.437 5.363 2.002.811 4.807.794 6.612-.033.295-.133.541-.24.55-.24.008 0 .082.149.164.33l.147.332h2.027v-1.854c0-2.21-.041-2.119 1-2.119h.64V49.08h-7.383v1.738h.706c1.017 0 1.017 0 1.017.985 0 .811 0 .828-.246 1.035-.295.248-.788.33-1.542.281-1.854-.14-2.756-1.63-2.617-4.312.107-1.912.648-2.922 1.821-3.36.656-.249 1.715-.249 2.354-.009.903.34 1.526 1.126 1.723 2.177l.107.555h2.091v-4.552h-2.026l-.147.33c-.082.183-.173.332-.206.332-.032 0-.328-.124-.664-.282-1.058-.48-2.01-.629-3.478-.538zm8.49 1.026v.87h.615c.722 0 1.05.115 1.403.505.14.157.927 1.183 1.747 2.276l1.485 2.002v1.2c0 1.49.025 1.465-1.165 1.465h-.804v1.739h7.957v-1.739h-.861c-1.198 0-1.19.017-1.19-1.473V50.19l.903-1.192c.5-.662 1.206-1.605 1.583-2.102 1.157-1.556 1.066-1.49 1.911-1.54l.73-.04.025-.853.025-.845h-5.75v1.738h.623c.754 0 .763-.042-.115 1.1-.878 1.15-1.042 1.333-1.148 1.267-.156-.091-1.658-2.136-1.658-2.252 0-.074.164-.115.6-.132l.59-.025.024-.852.025-.845h-7.555v.87zm15.586 0v.87h.705c1.124 0 1.018-.39 1.018 3.683 0 3.078-.017 3.517-.132 3.633-.098.1-.303.133-.861.133h-.73v1.738h5.496v-1.739h-.492c-.862 0-.82.158-.82-3.227 0-1.598.024-2.897.065-2.897.033 0 .36.885.73 1.97.37 1.076.968 2.847 1.345 3.923l.673 1.97h2.822l.508-1.449c1.116-3.211 2.174-6.133 2.24-6.199.033-.05.066 1.208.066 2.781v2.872l-.181.124c-.115.083-.36.133-.615.133h-.435v1.738h6.891v-1.739h-.698c-1.107 0-1.025.307-1.025-3.716 0-4.022-.082-3.716.984-3.749l.697-.025.025-.852.025-.845h-3.52c-3.289 0-3.527.009-3.568.141-.123.422-1.952 5.678-2.01 5.794-.049.083-.27-.472-.746-1.887a561.02 561.02 0 00-1.017-3.03l-.345-1.017h-7.095v.868zm22.066 6.82c-.943.307-1.477.927-1.477 1.697 0 .48.115.77.435 1.117.853.91 2.543.91 3.396 0 .32-.347.435-.637.435-1.117 0-.96-.845-1.688-2.01-1.738-.312-.017-.664 0-.78.041zm1.772.464c.796.496 1.009 1.366.5 2.036-.763 1.018-2.403 1.043-3.199.058-.476-.596-.353-1.523.263-1.962.475-.339.762-.422 1.41-.405.525.025.681.066 1.026.273z" fill="#EA7E1A"/><path d="M68.055 53.053c0 .753.024.91.123.91.09 0 .123-.1.123-.414v-.413h.328c.345 0 .566.165.878.637.115.174.435.265.435.124 0-.033-.148-.224-.328-.422-.37-.406-.378-.422-.214-.422.18 0 .377-.24.377-.455 0-.365-.188-.456-.992-.456h-.73v.91zm1.378-.646a.392.392 0 01.098.249c0 .165-.525.339-.927.297-.237-.024-.262-.05-.287-.339l-.024-.306h.517c.303 0 .566.041.623.1z" fill="#EA7E1A"/></svg>